<svg xmlns="http://www.w3.org/2000/svg" viewBox="0 0 166.99 186.26"><defs><style>.cls-1,.cls-2,.cls-3{fill:#fff;}.cls-1{stroke:#1faddd;}.cls-1,.cls-2{stroke-miterlimit:10;stroke-width:5px;}.cls-2{stroke:#d8355e;}.cls-4{fill:#cb355a;}</style></defs><title>アセット 21</title><g id="レイヤー_2" data-name="レイヤー 2"><g id="レイヤー_1-2" data-name="レイヤー 1"><rect class="cls-1" x="126.02" y="4.66" width="9.45" height="114.94" transform="translate(48.58 -57.05) rotate(30)"/><path class="cls-2" d="M125.08,60.08a18.34,18.34,0,0,0-20.62-24.36A24.48,24.48,0,0,0,64.3,11.21a18.39,18.39,0,0,0-34,9.69,19,19,0,0,0,.18,2.4A24.46,24.46,0,0,0,12.19,60.08a27,27,0,0,0,28.69,45.11,26.95,26.95,0,0,0,52.73-1.51,27,27,0,0,0,31.47-43.6Z"/><circle class="cls-1" cx="29.85" cy="81.07" r="27.35"/><circle class="cls-1" cx="107.41" cy="80.77" r="27.35"/><rect class="cls-3" x="15.8" y="45" width="99.41" height="69.32"/><path class="cls-2" d="M11.71,59s23.88,45.3,56,1.73c0,0,13.79-25.6,35.09-1.73,0,0,14,16.94,22.8,0"/><path class="cls-1" d="M122.85,102.74H12.74a2.78,2.78,0,0,0-2.53,3.6,103,103,0,0,1,3.07,16.82,11,11,0,0,0,3.07,6.66c10.38,10.52,26.66,17.69,45.28,19v22.48c-11,1.4-19.22,6.46-19.22,12.5H93.19c0-6-8.19-11.1-19.22-12.5V148.75c18.34-1.36,34.36-8.45,44.65-18.81a11,11,0,0,0,3.08-6.38,98.74,98.74,0,0,1,3.66-17.12A2.79,2.79,0,0,0,122.85,102.74Z"/><ellipse class="cls-3" cx="15.8" cy="55.54" rx="2.86" ry="7.28" transform="translate(-20.23 10.41) rotate(-22.73)"/><circle class="cls-3" cx="116.21" cy="55.51" r="7.28"/><rect class="cls-4" x="8.68" y="53.95" width="4.94" height="8.41" rx="2.22" ry="2.22" transform="translate(-24.71 11.03) rotate(-26.42)"/><rect class="cls-4" x="123.03" y="53.95" width="4.94" height="8.41" rx="2.22" ry="2.22" transform="translate(235.63 141.83) rotate(-167.64)"/></g></g></svg>